<svg xmlns="http://www.w3.org/2000/svg" viewBox="0 0 900 680" width="900" height="680" role="img" aria-label="Casquinhas de varios sabores">
<defs><linearGradient id="f12" x1="0" y1="0" x2="0.4" y2="1"><stop offset="0" stop-color="#FFD3E4"/><stop offset="1" stop-color="#FFF9F0"/></linearGradient></defs>
<rect width="900" height="680" fill="url(#f12)"/>
<path d="M596 436 Q596 436 575 499 Q555 562 492 588 Q429 614 378 577 Q326 540 309 488 Q291 436 304 380 Q316 323 373 303 Q429 282 495 293 Q561 305 578 370 z" fill="#FF5FA2" opacity="0.42"/><path d="M285 41 Q285 41 274 92 Q263 143 212 164 Q161 186 106 167 Q52 149 46 95 Q40 41 57 -3 Q74 -46 117 -62 Q161 -78 204 -62 Q247 -46 266 -3 z" fill="#35BEE0" opacity="0.38"/><path d="M413 530 Q413 530 405 595 Q396 659 332 684 Q267 710 197 690 Q127 669 119 600 Q111 530 134 475 Q157 420 212 383 Q267 345 331 374 Q394 403 404 466 z" fill="#FFC93C" opacity="0.44"/><rect x="855" y="55" width="25" height="6.8" rx="3.4" fill="#8E63C9" opacity="0.8" transform="rotate(104 855 55)"/><path d="M56 101 l6 12 l-12 0 z" fill="#7BD8B0" opacity="0.8"/><circle cx="844" cy="301" r="7.1" fill="#FF5FA2" opacity="0.8"/><rect x="36" y="65" width="22" height="6.8" rx="3.4" fill="#35BEE0" opacity="0.8" transform="rotate(125 36 65)"/><path d="M685 278 l6 12 l-12 0 z" fill="#FF5FA2" opacity="0.8"/><circle cx="784" cy="626" r="10.1" fill="#8E63C9" opacity="0.8"/><rect x="337" y="105" width="21" height="6.8" rx="3.4" fill="#7BD8B0" opacity="0.8" transform="rotate(45 337 105)"/><path d="M264 218 l6 12 l-12 0 z" fill="#7BD8B0" opacity="0.8"/><circle cx="582" cy="293" r="6.0" fill="#FF5FA2" opacity="0.8"/><circle cx="637" cy="328" r="5.6" fill="#35BEE0" opacity="0.8"/><circle cx="179" cy="103" r="6.0" fill="#8E63C9" opacity="0.8"/><rect x="509" y="67" width="23" height="6.8" rx="3.4" fill="#35BEE0" opacity="0.8" transform="rotate(38 509 67)"/><path d="M453 543 l6 12 l-12 0 z" fill="#35BEE0" opacity="0.8"/><rect x="410" y="629" width="24" height="6.8" rx="3.4" fill="#35BEE0" opacity="0.8" transform="rotate(172 410 629)"/><path d="M664 587 l6 12 l-12 0 z" fill="#8E63C9" opacity="0.8"/><circle cx="197" cy="449" r="8.5" fill="#35BEE0" opacity="0.8"/><circle cx="30" cy="188" r="7.9" fill="#7BD8B0" opacity="0.8"/><circle cx="159" cy="493" r="9.8" fill="#8E63C9" opacity="0.8"/><circle cx="31" cy="213" r="5.7" fill="#FF5FA2" opacity="0.8"/><circle cx="154" cy="77" r="6.1" fill="#35BEE0" opacity="0.8"/><rect x="241" y="553" width="25" height="6.8" rx="3.4" fill="#FF5FA2" opacity="0.8" transform="rotate(15 241 553)"/><circle cx="666" cy="587" r="6.8" fill="#35BEE0" opacity="0.8"/><circle cx="334" cy="255" r="7.2" fill="#FF5FA2" opacity="0.8"/>
<g transform="translate(280 610) scale(1.3)"><g transform="translate(0 -150)"><path d="M-72 0 L0 152 L72 0 z" fill="#96603E"/><clipPath id="cq280610"><path d="M-72 0 L0 152 L72 0 z"/></clipPath><g clip-path="url(#cq280610)"><path d="M-64 0 l58 150" stroke="#6B3F2A" stroke-width="3" opacity=".3"/><path d="M-42 0 l58 150" stroke="#6B3F2A" stroke-width="3" opacity=".3"/><path d="M-20 0 l58 150" stroke="#6B3F2A" stroke-width="3" opacity=".3"/><path d="M2 0 l58 150" stroke="#6B3F2A" stroke-width="3" opacity=".3"/><path d="M24 0 l58 150" stroke="#6B3F2A" stroke-width="3" opacity=".3"/><path d="M46 0 l58 150" stroke="#6B3F2A" stroke-width="3" opacity=".3"/><path d="M64 0 l-58 150" stroke="#6B3F2A" stroke-width="3" opacity=".3"/><path d="M42 0 l-58 150" stroke="#6B3F2A" stroke-width="3" opacity=".3"/><path d="M20 0 l-58 150" stroke="#6B3F2A" stroke-width="3" opacity=".3"/><path d="M-2 0 l-58 150" stroke="#6B3F2A" stroke-width="3" opacity=".3"/><path d="M-24 0 l-58 150" stroke="#6B3F2A" stroke-width="3" opacity=".3"/><path d="M-46 0 l-58 150" stroke="#6B3F2A" stroke-width="3" opacity=".3"/></g><path d="M-72 0 h144 v-14 a72 22 0 0 0 -144 0 z" fill="#7E4A31"/></g><circle cx="-38" cy="-186" r="52" fill="#7BD8B0"/><ellipse cx="-55" cy="-206" rx="14" ry="9" fill="#fff" opacity=".38" transform="rotate(-28 -55 -206)"/><circle cx="38" cy="-186" r="52" fill="#FF5FA2"/><ellipse cx="21" cy="-206" rx="14" ry="9" fill="#fff" opacity=".38" transform="rotate(-28 21 -206)"/><circle cx="0" cy="-240" r="56" fill="#FFC93C"/><ellipse cx="-18" cy="-261" rx="15" ry="10" fill="#fff" opacity=".38" transform="rotate(-28 -18 -261)"/><rect x="23" y="-245" width="13" height="5.0" rx="2.5" fill="#8E63C9" transform="rotate(67 0 -216)"/><rect x="49" y="-220" width="13" height="5.0" rx="2.5" fill="#7BD8B0" transform="rotate(111 0 -216)"/><rect x="-28" y="-210" width="13" height="5.0" rx="2.5" fill="#8E63C9" transform="rotate(49 0 -216)"/><rect x="46" y="-255" width="13" height="5.0" rx="2.5" fill="#35BEE0" transform="rotate(125 0 -216)"/><rect x="43" y="-222" width="13" height="5.0" rx="2.5" fill="#7BD8B0" transform="rotate(49 0 -216)"/><rect x="-20" y="-226" width="13" height="5.0" rx="2.5" fill="#35BEE0" transform="rotate(38 0 -216)"/><rect x="-13" y="-179" width="13" height="5.0" rx="2.5" fill="#35BEE0" transform="rotate(29 0 -216)"/><rect x="39" y="-217" width="13" height="5.0" rx="2.5" fill="#FF5FA2" transform="rotate(84 0 -216)"/><rect x="24" y="-240" width="13" height="5.0" rx="2.5" fill="#35BEE0" transform="rotate(124 0 -216)"/><rect x="-31" y="-253" width="13" height="5.0" rx="2.5" fill="#FFC93C" transform="rotate(85 0 -216)"/><rect x="29" y="-184" width="13" height="5.0" rx="2.5" fill="#8E63C9" transform="rotate(26 0 -216)"/><rect x="5" y="-197" width="13" height="5.0" rx="2.5" fill="#FFC93C" transform="rotate(94 0 -216)"/><circle cx="6" cy="-296" r="17" fill="#F2607A"/><path d="M6 -313 q10 -16 20 -10" stroke="#7BD8B0" stroke-width="5" fill="none"/></g><g transform="translate(610 660) scale(1.55)"><g transform="translate(0 -150)"><path d="M-72 0 L0 152 L72 0 z" fill="#96603E"/><clipPath id="cq610660"><path d="M-72 0 L0 152 L72 0 z"/></clipPath><g clip-path="url(#cq610660)"><path d="M-64 0 l58 150" stroke="#6B3F2A" stroke-width="3" opacity=".3"/><path d="M-42 0 l58 150" stroke="#6B3F2A" stroke-width="3" opacity=".3"/><path d="M-20 0 l58 150" stroke="#6B3F2A" stroke-width="3" opacity=".3"/><path d="M2 0 l58 150" stroke="#6B3F2A" stroke-width="3" opacity=".3"/><path d="M24 0 l58 150" stroke="#6B3F2A" stroke-width="3" opacity=".3"/><path d="M46 0 l58 150" stroke="#6B3F2A" stroke-width="3" opacity=".3"/><path d="M64 0 l-58 150" stroke="#6B3F2A" stroke-width="3" opacity=".3"/><path d="M42 0 l-58 150" stroke="#6B3F2A" stroke-width="3" opacity=".3"/><path d="M20 0 l-58 150" stroke="#6B3F2A" stroke-width="3" opacity=".3"/><path d="M-2 0 l-58 150" stroke="#6B3F2A" stroke-width="3" opacity=".3"/><path d="M-24 0 l-58 150" stroke="#6B3F2A" stroke-width="3" opacity=".3"/><path d="M-46 0 l-58 150" stroke="#6B3F2A" stroke-width="3" opacity=".3"/></g><path d="M-72 0 h144 v-14 a72 22 0 0 0 -144 0 z" fill="#7E4A31"/></g><circle cx="-38" cy="-186" r="52" fill="#96603E"/><ellipse cx="-55" cy="-206" rx="14" ry="9" fill="#fff" opacity=".38" transform="rotate(-28 -55 -206)"/><circle cx="38" cy="-186" r="52" fill="#FFF2D4"/><ellipse cx="21" cy="-206" rx="14" ry="9" fill="#fff" opacity=".38" transform="rotate(-28 21 -206)"/><circle cx="0" cy="-240" r="56" fill="#F2607A"/><ellipse cx="-18" cy="-261" rx="15" ry="10" fill="#fff" opacity=".38" transform="rotate(-28 -18 -261)"/><rect x="-23" y="-193" width="13" height="5.0" rx="2.5" fill="#8E63C9" transform="rotate(117 0 -216)"/><rect x="48" y="-218" width="13" height="5.0" rx="2.5" fill="#FF5FA2" transform="rotate(24 0 -216)"/><rect x="8" y="-194" width="13" height="5.0" rx="2.5" fill="#7BD8B0" transform="rotate(120 0 -216)"/><rect x="-17" y="-247" width="13" height="5.0" rx="2.5" fill="#7BD8B0" transform="rotate(151 0 -216)"/><rect x="42" y="-215" width="13" height="5.0" rx="2.5" fill="#7BD8B0" transform="rotate(151 0 -216)"/><rect x="13" y="-212" width="13" height="5.0" rx="2.5" fill="#FFC93C" transform="rotate(7 0 -216)"/><rect x="42" y="-177" width="13" height="5.0" rx="2.5" fill="#7BD8B0" transform="rotate(130 0 -216)"/><rect x="-34" y="-222" width="13" height="5.0" rx="2.5" fill="#FF5FA2" transform="rotate(159 0 -216)"/><rect x="8" y="-178" width="13" height="5.0" rx="2.5" fill="#FFC93C" transform="rotate(139 0 -216)"/><rect x="16" y="-253" width="13" height="5.0" rx="2.5" fill="#FFC93C" transform="rotate(70 0 -216)"/><rect x="44" y="-230" width="13" height="5.0" rx="2.5" fill="#7BD8B0" transform="rotate(37 0 -216)"/><rect x="-32" y="-206" width="13" height="5.0" rx="2.5" fill="#FF5FA2" transform="rotate(106 0 -216)"/><circle cx="6" cy="-296" r="17" fill="#F2607A"/><path d="M6 -313 q10 -16 20 -10" stroke="#7BD8B0" stroke-width="5" fill="none"/></g>
</svg>
