<svg xmlns="http://www.w3.org/2000/svg" viewBox="0 0 900 680" width="900" height="680" role="img" aria-label="Hamburguer da lanchonete">
<defs><linearGradient id="f7" x1="0" y1="0" x2="0.4" y2="1"><stop offset="0" stop-color="#FFF0C7"/><stop offset="1" stop-color="#FFF9F0"/></linearGradient></defs>
<rect width="900" height="680" fill="url(#f7)"/>
<path d="M463 126 Q463 126 436 178 Q410 229 359 265 Q307 301 258 264 Q208 226 174 176 Q139 126 167 70 Q196 15 251 1 Q307 -13 366 -2 Q425 9 444 67 z" fill="#FF5FA2" opacity="0.42"/><path d="M225 362 Q225 362 220 418 Q215 473 159 476 Q104 479 52 472 Q1 464 -5 413 Q-11 362 3 319 Q17 275 60 239 Q104 203 146 240 Q189 276 207 319 z" fill="#35BEE0" opacity="0.38"/><path d="M190 345 Q190 345 174 378 Q159 412 125 421 Q92 431 52 427 Q13 424 11 384 Q10 345 16 309 Q22 274 57 253 Q92 231 122 258 Q152 285 171 315 z" fill="#FFC93C" opacity="0.44"/><rect x="325" y="295" width="18" height="6.8" rx="3.4" fill="#7BD8B0" opacity="0.8" transform="rotate(98 325 295)"/><rect x="359" y="47" width="25" height="6.8" rx="3.4" fill="#7BD8B0" opacity="0.8" transform="rotate(0 359 47)"/><rect x="250" y="638" width="16" height="6.8" rx="3.4" fill="#7BD8B0" opacity="0.8" transform="rotate(80 250 638)"/><rect x="507" y="167" width="20" height="6.8" rx="3.4" fill="#8E63C9" opacity="0.8" transform="rotate(61 507 167)"/><rect x="55" y="260" width="21" height="6.8" rx="3.4" fill="#FFC93C" opacity="0.8" transform="rotate(50 55 260)"/><circle cx="229" cy="558" r="5.4" fill="#FF5FA2" opacity="0.8"/><circle cx="516" cy="345" r="9.9" fill="#FFC93C" opacity="0.8"/><circle cx="219" cy="467" r="9.2" fill="#FFC93C" opacity="0.8"/><path d="M681 398 l6 12 l-12 0 z" fill="#FFC93C" opacity="0.8"/><circle cx="712" cy="538" r="8.2" fill="#FFC93C" opacity="0.8"/><circle cx="436" cy="380" r="9.1" fill="#7BD8B0" opacity="0.8"/><circle cx="703" cy="408" r="6.3" fill="#35BEE0" opacity="0.8"/><circle cx="538" cy="612" r="10.6" fill="#35BEE0" opacity="0.8"/><circle cx="490" cy="535" r="7.8" fill="#FF5FA2" opacity="0.8"/><circle cx="554" cy="325" r="9.3" fill="#7BD8B0" opacity="0.8"/><rect x="541" y="595" width="22" height="6.8" rx="3.4" fill="#8E63C9" opacity="0.8" transform="rotate(120 541 595)"/><path d="M801 420 l6 12 l-12 0 z" fill="#FFC93C" opacity="0.8"/><path d="M515 147 l6 12 l-12 0 z" fill="#7BD8B0" opacity="0.8"/><rect x="838" y="463" width="17" height="6.8" rx="3.4" fill="#35BEE0" opacity="0.8" transform="rotate(25 838 463)"/><rect x="143" y="522" width="17" height="6.8" rx="3.4" fill="#FFC93C" opacity="0.8" transform="rotate(113 143 522)"/><circle cx="27" cy="99" r="6.4" fill="#FF5FA2" opacity="0.8"/><circle cx="146" cy="493" r="9.4" fill="#7BD8B0" opacity="0.8"/><circle cx="446" cy="310" r="5.3" fill="#8E63C9" opacity="0.8"/>
<g transform="translate(450 400) scale(2.2)"><path d="M-92 -30 a92 78 0 0 1 184 0 z" fill="#FFC93C"/><ellipse cx="-56" cy="-70" rx="9" ry="5" fill="#FFF2D4"/><ellipse cx="-28" cy="-56" rx="9" ry="5" fill="#FFF2D4"/><ellipse cx="0" cy="-70" rx="9" ry="5" fill="#FFF2D4"/><ellipse cx="28" cy="-56" rx="9" ry="5" fill="#FFF2D4"/><ellipse cx="56" cy="-70" rx="9" ry="5" fill="#FFF2D4"/><path d="M-92 -30 h184 v10 a12 12 0 0 1 -12 12 h-160 a12 12 0 0 1 -12 -12 z" fill="#7BD8B0"/><rect x="-88" y="-10" width="176" height="26" rx="10" fill="#6B3F2A"/><path d="M-84 14 q42 22 84 0 q42 -22 84 0 v10 q-42 22 -84 0 q-42 -22 -84 0 z" fill="#FFC93C"/><rect x="-86" y="30" width="172" height="20" rx="9" fill="#F2607A"/><path d="M-90 50 h180 a14 14 0 0 1 -14 26 h-152 a14 14 0 0 1 -14 -26 z" fill="#FFC93C"/></g>
</svg>
