<svg xmlns="http://www.w3.org/2000/svg" viewBox="0 0 700 700" width="700" height="700" role="img" aria-label="Agua fresca in a tall glass">
<defs><radialGradient id="vin54" cx="50%" cy="46%" r="72%"><stop offset="55%" stop-color="#000" stop-opacity="0"/><stop offset="100%" stop-color="#000" stop-opacity=".34"/></radialGradient><filter id="bl54" x="-30%" y="-30%" width="160%" height="160%"><feGaussianBlur stdDeviation="14"/></filter></defs>
<rect width="700" height="700" fill="#141210"/>
<g transform="translate(350 336) scale(1.95)"><ellipse cx="0" cy="118" rx="70" ry="16" fill="#000" opacity=".2"/><path d="M-62 -84 L-50 104 C-48 118 48 118 50 104 L62 -84 Z" fill="#C8305A" opacity=".92"/><path d="M-62 -84 L-50 104 C-48 118 48 118 50 104 L62 -84 Z" fill="none" stroke="#FFF" stroke-width="3" opacity=".3"/><ellipse cx="0" cy="-84" rx="62" ry="15" fill="#D56383"/><path d="M-52 -60 L-44 70" stroke="#FFF" stroke-width="9" opacity=".35" stroke-linecap="round"/><rect x="14" y="-118" width="11" height="128" rx="5" fill="#E8503A" transform="rotate(12 20 -54)"/></g><circle cx="498" cy="569" r="6.4" fill="#E9B44C" opacity="0.94"/><circle cx="247" cy="600" r="6.3" fill="#E9B44C" opacity="0.98"/><circle cx="172" cy="481" r="5.3" fill="#E9B44C" opacity="0.93"/><circle cx="480" cy="499" r="7.7" fill="#E9B44C" opacity="0.81"/><circle cx="528" cy="712" r="4.4" fill="#E9B44C" opacity="0.99"/><circle cx="342" cy="505" r="5.9" fill="#E9B44C" opacity="0.63"/><circle cx="445" cy="608" r="4.4" fill="#E9B44C" opacity="0.69"/><circle cx="352" cy="670" r="5.1" fill="#E9B44C" opacity="0.64"/><circle cx="295" cy="481" r="5.3" fill="#E9B44C" opacity="0.95"/><circle cx="230" cy="543" r="7.1" fill="#E9B44C" opacity="0.68"/>
<rect width="700" height="700" fill="url(#vin54)"/>
</svg>
