<svg xmlns="http://www.w3.org/2000/svg" viewBox="0 0 900 1120" width="900" height="1120" role="img" aria-label="Casa da chacara vista do jardim, com pergolado">
<defs>
  <linearGradient id="ceu8" x1="0" y1="0" x2="0" y2="1">
    <stop offset="0" stop-color="#EBD9BE"/><stop offset="1" stop-color="#F7EEE0"/>
  </linearGradient>
  <linearGradient id="agua8" x1="0" y1="0" x2="0" y2="1">
    <stop offset="0" stop-color="#9CCBC3"/><stop offset="1" stop-color="#6FA8A0"/>
  </linearGradient>
  <filter id="grao8" x="0" y="0" width="100%" height="100%">
    <feTurbulence type="fractalNoise" baseFrequency=".9" numOctaves="2" stitchTiles="stitch"/>
    <feColorMatrix type="saturate" values="0"/>
  </filter>
</defs>
<rect width="900" height="1120" fill="url(#ceu8)"/>
<circle cx="680" cy="210" r="148" fill="#E8B87A" opacity=".16"/><circle cx="680" cy="210" r="105" fill="#E8B87A" opacity=".22"/><circle cx="680" cy="210" r="78" fill="#E8B87A" opacity=".85"/><path d="M-40 520 q141 -84 281 0 q141 -120 281 0 q141 -84 281 0 q141 -120 281 0 L940 920 L-40 920 z" fill="#1F3A2E" opacity="0.9"/><path d="M-40 570 q141 -96 281 0 q141 -67 281 0 q141 -96 281 0 q141 -67 281 0 L940 970 L-40 970 z" fill="#2F5E45" opacity="0.95"/><rect x="-20" y="660" width="940" height="900" fill="#E8DCC8"/><g transform="translate(430 500) scale(1.0)"><path d="M-196.0 0 L0 -105 L196.0 0 z" fill="#B5603C"/><path d="M-196.0 0 L0 -105 L0 0 z" fill="#C9784E" opacity=".55"/><rect x="-170.0" y="0" width="340" height="170" fill="#FBF7EF"/><rect x="-170.0" y="0" width="143" height="170" fill="#E8DCC8" opacity=".55"/><rect x="-122" y="41" width="58" height="58" fill="#6FA8A0" opacity=".55"/><rect x="65" y="41" width="58" height="58" fill="#6FA8A0" opacity=".55"/><rect x="-27" y="58" width="54" height="112" fill="#8A6242"/></g><g transform="translate(120 700) scale(1.5)"><path d="M-6 0 v-74 h12 v74 z" fill="#8A6242"/><circle cx="0" cy="-104" r="58" fill="#2F5E45"/><circle cx="-40" cy="-78" r="40" fill="#2F5E45" opacity=".92"/><circle cx="42" cy="-82" r="43" fill="#2F5E45" opacity=".85"/><circle cx="6" cy="-140" r="34" fill="#4C8459" opacity=".55"/></g><g transform="translate(760 730) rotate(8) scale(1.3)"><path d="M-7 0 q4 -78 -2 -150 q10 74 16 150 z" fill="#8A6242"/><g transform="translate(-2 -150)"><path d="M0 0 q-64 -43 -92 -15 q--33 28 --92 9 z" fill="#4C8459"/><path d="M0 0 q-54 -63 -73 -37 q--26 28 --73 23 z" fill="#2F5E45"/><path d="M0 0 q-32 -79 -32 -55 q--12 28 --32 34 z" fill="#4C8459"/><path d="M0 0 q4 -79 32 -55 q-12 28 -32 34 z" fill="#2F5E45"/><path d="M0 0 q26 -63 73 -37 q-26 28 -73 23 z" fill="#4C8459"/><path d="M0 0 q36 -43 92 -15 q-33 28 -92 9 z" fill="#2F5E45"/><circle r="7" fill="#A97F58"/></g></g><rect x="120" y="900" width="660" height="150" fill="#A97F58"/><rect x="120" y="906" width="660" height="4" fill="#8A6242" opacity=".3"/><rect x="120" y="928" width="660" height="4" fill="#8A6242" opacity=".3"/><rect x="120" y="950" width="660" height="4" fill="#8A6242" opacity=".3"/><rect x="120" y="972" width="660" height="4" fill="#8A6242" opacity=".3"/><rect x="120" y="994" width="660" height="4" fill="#8A6242" opacity=".3"/><rect x="120" y="1016" width="660" height="4" fill="#8A6242" opacity=".3"/><rect x="120" y="1038" width="660" height="4" fill="#8A6242" opacity=".3"/><rect x="150" y="760" width="600" height="14" rx="7" fill="#8A6242"/><rect x="150" y="746" width="600" height="10" rx="5" fill="#A97F58"/><rect x="170" y="760" width="14" height="146" fill="#8A6242"/><rect x="310" y="760" width="14" height="146" fill="#8A6242"/><rect x="450" y="760" width="14" height="146" fill="#8A6242"/><rect x="590" y="760" width="14" height="146" fill="#8A6242"/><rect x="730" y="760" width="14" height="146" fill="#8A6242"/><ellipse cx="450" cy="880" rx="150" ry="40" fill="#8A6242"/><ellipse cx="450" cy="866" rx="150" ry="40" fill="#FBF7EF"/><circle cx="370" cy="862" r="17" fill="#2F5E45"/><circle cx="424" cy="862" r="17" fill="#B5603C"/><circle cx="478" cy="862" r="17" fill="#2F5E45"/><circle cx="532" cy="862" r="17" fill="#B5603C"/><rect x="440" y="900" width="20" height="80" fill="#8A6242"/><g transform="translate(120 990) scale(1.4)"><ellipse cx="0" cy="0" rx="46" ry="26" fill="#4C8459"/><ellipse cx="-26" cy="-10" rx="28" ry="20" fill="#4C8459" opacity=".85"/><ellipse cx="26" cy="-12" rx="30" ry="21" fill="#7FA97F" opacity=".55"/></g><g transform="translate(790 1000) scale(1.5)"><ellipse cx="0" cy="0" rx="46" ry="26" fill="#4C8459"/><ellipse cx="-26" cy="-10" rx="28" ry="20" fill="#4C8459" opacity=".85"/><ellipse cx="26" cy="-12" rx="30" ry="21" fill="#7FA97F" opacity=".55"/></g>
<rect width="900" height="1120" filter="url(#grao8)" opacity=".10" style="mix-blend-mode:multiply"/>
</svg>
