<svg xmlns="http://www.w3.org/2000/svg" viewBox="0 0 800 620" width="800" height="620" role="img" aria-label="Correntes de prata">
<defs>
  <linearGradient id="metal21" gradientTransform="rotate(112 .5 .5)">
    <stop offset="0"    stop-color="#8E949C"/>
    <stop offset="0.16" stop-color="#E6EAEE"/>
    <stop offset="0.30" stop-color="#AFB6BE"/>
    <stop offset="0.46" stop-color="#F7F9FB"/>
    <stop offset="0.62" stop-color="#9AA1A9"/>
    <stop offset="0.80" stop-color="#DDE2E7"/>
    <stop offset="1"    stop-color="#868D95"/>
  </linearGradient>
  <linearGradient id="metal221" gradientTransform="rotate(150 .5 .5)">
    <stop offset="0"    stop-color="#A6ADB5"/>
    <stop offset="0.28" stop-color="#F2F5F8"/>
    <stop offset="0.55" stop-color="#9FA6AE"/>
    <stop offset="0.78" stop-color="#E9EDF1"/>
    <stop offset="1"    stop-color="#8B929A"/>
  </linearGradient>
  <radialGradient id="fundo21" cx="50%" cy="42%" r="78%">
    <stop offset="0" stop-color="#FDFDFE"/>
    <stop offset="0.62" stop-color="#F2F4F7"/>
    <stop offset="1" stop-color="#E4E7EC"/>
  </radialGradient>
  <radialGradient id="sombra21" cx="50%" cy="50%" r="50%">
    <stop offset="0" stop-color="#6E757E" stop-opacity=".34"/>
    <stop offset="1" stop-color="#6E757E" stop-opacity="0"/>
  </radialGradient>
  <radialGradient id="pedra21" cx="38%" cy="32%" r="72%">
    <stop offset="0" stop-color="#FFFFFF"/>
    <stop offset="0.42" stop-color="#DCE6F0"/>
    <stop offset="1" stop-color="#A9B7C6"/>
  </radialGradient>
  <filter id="suave21" x="-30%" y="-30%" width="160%" height="160%">
    <feGaussianBlur stdDeviation="7"/>
  </filter>
</defs>
<rect width="800" height="620" fill="url(#fundo21)"/>
<ellipse cx="400" cy="542" rx="240" ry="25" fill="url(#sombra21)"/>
<g transform="translate(110.0 250.0) rotate(37.2)"><rect x="-24.0" y="-13.0" width="48.0" height="26.0" rx="13.0" fill="none" stroke="url(#metal21)" stroke-width="8"/><path d="M-19.2 -4.7 a7.8 7.8 0 0 1 13.0 -7.3" fill="none" stroke="#FFFFFF" stroke-width="2.4" opacity=".5" stroke-linecap="round"/></g><g transform="translate(130.0 264.6) rotate(125.2)"><rect x="-24.0" y="-13.0" width="48.0" height="26.0" rx="13.0" fill="none" stroke="url(#metal21)" stroke-width="8"/><path d="M-19.2 -4.7 a7.8 7.8 0 0 1 13.0 -7.3" fill="none" stroke="#FFFFFF" stroke-width="2.4" opacity=".5" stroke-linecap="round"/></g><g transform="translate(150.0 278.3) rotate(33.2)"><rect x="-24.0" y="-13.0" width="48.0" height="26.0" rx="13.0" fill="none" stroke="url(#metal21)" stroke-width="8"/><path d="M-19.2 -4.7 a7.8 7.8 0 0 1 13.0 -7.3" fill="none" stroke="#FFFFFF" stroke-width="2.4" opacity=".5" stroke-linecap="round"/></g><g transform="translate(170.0 290.8) rotate(121.0)"><rect x="-24.0" y="-13.0" width="48.0" height="26.0" rx="13.0" fill="none" stroke="url(#metal21)" stroke-width="8"/><path d="M-19.2 -4.7 a7.8 7.8 0 0 1 13.0 -7.3" fill="none" stroke="#FFFFFF" stroke-width="2.4" opacity=".5" stroke-linecap="round"/></g><g transform="translate(190.0 302.3) rotate(28.8)"><rect x="-24.0" y="-13.0" width="48.0" height="26.0" rx="13.0" fill="none" stroke="url(#metal21)" stroke-width="8"/><path d="M-19.2 -4.7 a7.8 7.8 0 0 1 13.0 -7.3" fill="none" stroke="#FFFFFF" stroke-width="2.4" opacity=".5" stroke-linecap="round"/></g><g transform="translate(210.0 312.8) rotate(116.4)"><rect x="-24.0" y="-13.0" width="48.0" height="26.0" rx="13.0" fill="none" stroke="url(#metal21)" stroke-width="8"/><path d="M-19.2 -4.7 a7.8 7.8 0 0 1 13.0 -7.3" fill="none" stroke="#FFFFFF" stroke-width="2.4" opacity=".5" stroke-linecap="round"/></g><g transform="translate(230.0 322.2) rotate(24.0)"><rect x="-24.0" y="-13.0" width="48.0" height="26.0" rx="13.0" fill="none" stroke="url(#metal21)" stroke-width="8"/><path d="M-19.2 -4.7 a7.8 7.8 0 0 1 13.0 -7.3" fill="none" stroke="#FFFFFF" stroke-width="2.4" opacity=".5" stroke-linecap="round"/></g><g transform="translate(250.0 330.6) rotate(111.4)"><rect x="-24.0" y="-13.0" width="48.0" height="26.0" rx="13.0" fill="none" stroke="url(#metal21)" stroke-width="8"/><path d="M-19.2 -4.7 a7.8 7.8 0 0 1 13.0 -7.3" fill="none" stroke="#FFFFFF" stroke-width="2.4" opacity=".5" stroke-linecap="round"/></g><g transform="translate(270.0 337.9) rotate(18.8)"><rect x="-24.0" y="-13.0" width="48.0" height="26.0" rx="13.0" fill="none" stroke="url(#metal21)" stroke-width="8"/><path d="M-19.2 -4.7 a7.8 7.8 0 0 1 13.0 -7.3" fill="none" stroke="#FFFFFF" stroke-width="2.4" opacity=".5" stroke-linecap="round"/></g><g transform="translate(290.0 344.2) rotate(106.1)"><rect x="-24.0" y="-13.0" width="48.0" height="26.0" rx="13.0" fill="none" stroke="url(#metal21)" stroke-width="8"/><path d="M-19.2 -4.7 a7.8 7.8 0 0 1 13.0 -7.3" fill="none" stroke="#FFFFFF" stroke-width="2.4" opacity=".5" stroke-linecap="round"/></g><g transform="translate(310.0 349.4) rotate(13.2)"><rect x="-24.0" y="-13.0" width="48.0" height="26.0" rx="13.0" fill="none" stroke="url(#metal21)" stroke-width="8"/><path d="M-19.2 -4.7 a7.8 7.8 0 0 1 13.0 -7.3" fill="none" stroke="#FFFFFF" stroke-width="2.4" opacity=".5" stroke-linecap="round"/></g><g transform="translate(330.0 353.6) rotate(100.4)"><rect x="-24.0" y="-13.0" width="48.0" height="26.0" rx="13.0" fill="none" stroke="url(#metal21)" stroke-width="8"/><path d="M-19.2 -4.7 a7.8 7.8 0 0 1 13.0 -7.3" fill="none" stroke="#FFFFFF" stroke-width="2.4" opacity=".5" stroke-linecap="round"/></g><g transform="translate(350.0 356.7) rotate(7.5)"><rect x="-24.0" y="-13.0" width="48.0" height="26.0" rx="13.0" fill="none" stroke="url(#metal21)" stroke-width="8"/><path d="M-19.2 -4.7 a7.8 7.8 0 0 1 13.0 -7.3" fill="none" stroke="#FFFFFF" stroke-width="2.4" opacity=".5" stroke-linecap="round"/></g><g transform="translate(370.0 358.8) rotate(94.5)"><rect x="-24.0" y="-13.0" width="48.0" height="26.0" rx="13.0" fill="none" stroke="url(#metal21)" stroke-width="8"/><path d="M-19.2 -4.7 a7.8 7.8 0 0 1 13.0 -7.3" fill="none" stroke="#FFFFFF" stroke-width="2.4" opacity=".5" stroke-linecap="round"/></g><g transform="translate(390.0 359.9) rotate(1.5)"><rect x="-24.0" y="-13.0" width="48.0" height="26.0" rx="13.0" fill="none" stroke="url(#metal21)" stroke-width="8"/><path d="M-19.2 -4.7 a7.8 7.8 0 0 1 13.0 -7.3" fill="none" stroke="#FFFFFF" stroke-width="2.4" opacity=".5" stroke-linecap="round"/></g><g transform="translate(410.0 359.9) rotate(88.5)"><rect x="-24.0" y="-13.0" width="48.0" height="26.0" rx="13.0" fill="none" stroke="url(#metal21)" stroke-width="8"/><path d="M-19.2 -4.7 a7.8 7.8 0 0 1 13.0 -7.3" fill="none" stroke="#FFFFFF" stroke-width="2.4" opacity=".5" stroke-linecap="round"/></g><g transform="translate(430.0 358.8) rotate(-4.5)"><rect x="-24.0" y="-13.0" width="48.0" height="26.0" rx="13.0" fill="none" stroke="url(#metal21)" stroke-width="8"/><path d="M-19.2 -4.7 a7.8 7.8 0 0 1 13.0 -7.3" fill="none" stroke="#FFFFFF" stroke-width="2.4" opacity=".5" stroke-linecap="round"/></g><g transform="translate(450.0 356.7) rotate(82.5)"><rect x="-24.0" y="-13.0" width="48.0" height="26.0" rx="13.0" fill="none" stroke="url(#metal21)" stroke-width="8"/><path d="M-19.2 -4.7 a7.8 7.8 0 0 1 13.0 -7.3" fill="none" stroke="#FFFFFF" stroke-width="2.4" opacity=".5" stroke-linecap="round"/></g><g transform="translate(470.0 353.6) rotate(-10.4)"><rect x="-24.0" y="-13.0" width="48.0" height="26.0" rx="13.0" fill="none" stroke="url(#metal21)" stroke-width="8"/><path d="M-19.2 -4.7 a7.8 7.8 0 0 1 13.0 -7.3" fill="none" stroke="#FFFFFF" stroke-width="2.4" opacity=".5" stroke-linecap="round"/></g><g transform="translate(490.0 349.4) rotate(76.8)"><rect x="-24.0" y="-13.0" width="48.0" height="26.0" rx="13.0" fill="none" stroke="url(#metal21)" stroke-width="8"/><path d="M-19.2 -4.7 a7.8 7.8 0 0 1 13.0 -7.3" fill="none" stroke="#FFFFFF" stroke-width="2.4" opacity=".5" stroke-linecap="round"/></g><g transform="translate(510.0 344.2) rotate(-16.1)"><rect x="-24.0" y="-13.0" width="48.0" height="26.0" rx="13.0" fill="none" stroke="url(#metal21)" stroke-width="8"/><path d="M-19.2 -4.7 a7.8 7.8 0 0 1 13.0 -7.3" fill="none" stroke="#FFFFFF" stroke-width="2.4" opacity=".5" stroke-linecap="round"/></g><g transform="translate(530.0 337.9) rotate(71.2)"><rect x="-24.0" y="-13.0" width="48.0" height="26.0" rx="13.0" fill="none" stroke="url(#metal21)" stroke-width="8"/><path d="M-19.2 -4.7 a7.8 7.8 0 0 1 13.0 -7.3" fill="none" stroke="#FFFFFF" stroke-width="2.4" opacity=".5" stroke-linecap="round"/></g><g transform="translate(550.0 330.6) rotate(-21.4)"><rect x="-24.0" y="-13.0" width="48.0" height="26.0" rx="13.0" fill="none" stroke="url(#metal21)" stroke-width="8"/><path d="M-19.2 -4.7 a7.8 7.8 0 0 1 13.0 -7.3" fill="none" stroke="#FFFFFF" stroke-width="2.4" opacity=".5" stroke-linecap="round"/></g><g transform="translate(570.0 322.2) rotate(66.0)"><rect x="-24.0" y="-13.0" width="48.0" height="26.0" rx="13.0" fill="none" stroke="url(#metal21)" stroke-width="8"/><path d="M-19.2 -4.7 a7.8 7.8 0 0 1 13.0 -7.3" fill="none" stroke="#FFFFFF" stroke-width="2.4" opacity=".5" stroke-linecap="round"/></g><g transform="translate(590.0 312.8) rotate(-26.4)"><rect x="-24.0" y="-13.0" width="48.0" height="26.0" rx="13.0" fill="none" stroke="url(#metal21)" stroke-width="8"/><path d="M-19.2 -4.7 a7.8 7.8 0 0 1 13.0 -7.3" fill="none" stroke="#FFFFFF" stroke-width="2.4" opacity=".5" stroke-linecap="round"/></g><g transform="translate(610.0 302.3) rotate(61.2)"><rect x="-24.0" y="-13.0" width="48.0" height="26.0" rx="13.0" fill="none" stroke="url(#metal21)" stroke-width="8"/><path d="M-19.2 -4.7 a7.8 7.8 0 0 1 13.0 -7.3" fill="none" stroke="#FFFFFF" stroke-width="2.4" opacity=".5" stroke-linecap="round"/></g><g transform="translate(630.0 290.8) rotate(-31.0)"><rect x="-24.0" y="-13.0" width="48.0" height="26.0" rx="13.0" fill="none" stroke="url(#metal21)" stroke-width="8"/><path d="M-19.2 -4.7 a7.8 7.8 0 0 1 13.0 -7.3" fill="none" stroke="#FFFFFF" stroke-width="2.4" opacity=".5" stroke-linecap="round"/></g><g transform="translate(650.0 278.3) rotate(56.8)"><rect x="-24.0" y="-13.0" width="48.0" height="26.0" rx="13.0" fill="none" stroke="url(#metal21)" stroke-width="8"/><path d="M-19.2 -4.7 a7.8 7.8 0 0 1 13.0 -7.3" fill="none" stroke="#FFFFFF" stroke-width="2.4" opacity=".5" stroke-linecap="round"/></g><g transform="translate(670.0 264.6) rotate(-35.2)"><rect x="-24.0" y="-13.0" width="48.0" height="26.0" rx="13.0" fill="none" stroke="url(#metal21)" stroke-width="8"/><path d="M-19.2 -4.7 a7.8 7.8 0 0 1 13.0 -7.3" fill="none" stroke="#FFFFFF" stroke-width="2.4" opacity=".5" stroke-linecap="round"/></g><g transform="translate(690.0 250.0) rotate(52.8)"><rect x="-24.0" y="-13.0" width="48.0" height="26.0" rx="13.0" fill="none" stroke="url(#metal21)" stroke-width="8"/><path d="M-19.2 -4.7 a7.8 7.8 0 0 1 13.0 -7.3" fill="none" stroke="#FFFFFF" stroke-width="2.4" opacity=".5" stroke-linecap="round"/></g>
</svg>
