<svg xmlns="http://www.w3.org/2000/svg" viewBox="0 0 900 900" width="900" height="900" role="img" aria-label="Corrente cubana em prata 925">
<defs>
  <linearGradient id="metal3" gradientTransform="rotate(112 .5 .5)">
    <stop offset="0"    stop-color="#8E949C"/>
    <stop offset="0.16" stop-color="#E6EAEE"/>
    <stop offset="0.30" stop-color="#AFB6BE"/>
    <stop offset="0.46" stop-color="#F7F9FB"/>
    <stop offset="0.62" stop-color="#9AA1A9"/>
    <stop offset="0.80" stop-color="#DDE2E7"/>
    <stop offset="1"    stop-color="#868D95"/>
  </linearGradient>
  <linearGradient id="metal23" gradientTransform="rotate(150 .5 .5)">
    <stop offset="0"    stop-color="#A6ADB5"/>
    <stop offset="0.28" stop-color="#F2F5F8"/>
    <stop offset="0.55" stop-color="#9FA6AE"/>
    <stop offset="0.78" stop-color="#E9EDF1"/>
    <stop offset="1"    stop-color="#8B929A"/>
  </linearGradient>
  <radialGradient id="fundo3" cx="50%" cy="42%" r="78%">
    <stop offset="0" stop-color="#FDFDFE"/>
    <stop offset="0.62" stop-color="#F2F4F7"/>
    <stop offset="1" stop-color="#E4E7EC"/>
  </radialGradient>
  <radialGradient id="sombra3" cx="50%" cy="50%" r="50%">
    <stop offset="0" stop-color="#6E757E" stop-opacity=".34"/>
    <stop offset="1" stop-color="#6E757E" stop-opacity="0"/>
  </radialGradient>
  <radialGradient id="pedra3" cx="38%" cy="32%" r="72%">
    <stop offset="0" stop-color="#FFFFFF"/>
    <stop offset="0.42" stop-color="#DCE6F0"/>
    <stop offset="1" stop-color="#A9B7C6"/>
  </radialGradient>
  <filter id="suave3" x="-30%" y="-30%" width="160%" height="160%">
    <feGaussianBlur stdDeviation="7"/>
  </filter>
</defs>
<rect width="900" height="900" fill="url(#fundo3)"/>
<ellipse cx="450" cy="760" rx="234" ry="32" fill="url(#sombra3)"/>
<g transform="translate(170.0 320.0) rotate(48.8)"><rect x="-31.0" y="-19.0" width="62.0" height="38.0" rx="19.0" fill="none" stroke="url(#metal3)" stroke-width="11"/><path d="M-24.4 -6.8 a11.4 11.4 0 0 1 19.0 -10.6" fill="none" stroke="#FFFFFF" stroke-width="3.3" opacity=".5" stroke-linecap="round"/></g><g transform="translate(192.4 344.6) rotate(136.4)"><rect x="-31.0" y="-19.0" width="62.0" height="38.0" rx="19.0" fill="none" stroke="url(#metal3)" stroke-width="11"/><path d="M-24.4 -6.8 a11.4 11.4 0 0 1 19.0 -10.6" fill="none" stroke="#FFFFFF" stroke-width="3.3" opacity=".5" stroke-linecap="round"/></g><g transform="translate(214.8 367.1) rotate(43.8)"><rect x="-31.0" y="-19.0" width="62.0" height="38.0" rx="19.0" fill="none" stroke="url(#metal3)" stroke-width="11"/><path d="M-24.4 -6.8 a11.4 11.4 0 0 1 19.0 -10.6" fill="none" stroke="#FFFFFF" stroke-width="3.3" opacity=".5" stroke-linecap="round"/></g><g transform="translate(237.2 387.6) rotate(131.0)"><rect x="-31.0" y="-19.0" width="62.0" height="38.0" rx="19.0" fill="none" stroke="url(#metal3)" stroke-width="11"/><path d="M-24.4 -6.8 a11.4 11.4 0 0 1 19.0 -10.6" fill="none" stroke="#FFFFFF" stroke-width="3.3" opacity=".5" stroke-linecap="round"/></g><g transform="translate(259.6 406.0) rotate(37.9)"><rect x="-31.0" y="-19.0" width="62.0" height="38.0" rx="19.0" fill="none" stroke="url(#metal3)" stroke-width="11"/><path d="M-24.4 -6.8 a11.4 11.4 0 0 1 19.0 -10.6" fill="none" stroke="#FFFFFF" stroke-width="3.3" opacity=".5" stroke-linecap="round"/></g><g transform="translate(282.0 422.4) rotate(124.4)"><rect x="-31.0" y="-19.0" width="62.0" height="38.0" rx="19.0" fill="none" stroke="url(#metal3)" stroke-width="11"/><path d="M-24.4 -6.8 a11.4 11.4 0 0 1 19.0 -10.6" fill="none" stroke="#FFFFFF" stroke-width="3.3" opacity=".5" stroke-linecap="round"/></g><g transform="translate(304.4 436.7) rotate(30.7)"><rect x="-31.0" y="-19.0" width="62.0" height="38.0" rx="19.0" fill="none" stroke="url(#metal3)" stroke-width="11"/><path d="M-24.4 -6.8 a11.4 11.4 0 0 1 19.0 -10.6" fill="none" stroke="#FFFFFF" stroke-width="3.3" opacity=".5" stroke-linecap="round"/></g><g transform="translate(326.8 449.0) rotate(116.7)"><rect x="-31.0" y="-19.0" width="62.0" height="38.0" rx="19.0" fill="none" stroke="url(#metal3)" stroke-width="11"/><path d="M-24.4 -6.8 a11.4 11.4 0 0 1 19.0 -10.6" fill="none" stroke="#FFFFFF" stroke-width="3.3" opacity=".5" stroke-linecap="round"/></g><g transform="translate(349.2 459.3) rotate(22.4)"><rect x="-31.0" y="-19.0" width="62.0" height="38.0" rx="19.0" fill="none" stroke="url(#metal3)" stroke-width="11"/><path d="M-24.4 -6.8 a11.4 11.4 0 0 1 19.0 -10.6" fill="none" stroke="#FFFFFF" stroke-width="3.3" opacity=".5" stroke-linecap="round"/></g><g transform="translate(371.6 467.5) rotate(107.7)"><rect x="-31.0" y="-19.0" width="62.0" height="38.0" rx="19.0" fill="none" stroke="url(#metal3)" stroke-width="11"/><path d="M-24.4 -6.8 a11.4 11.4 0 0 1 19.0 -10.6" fill="none" stroke="#FFFFFF" stroke-width="3.3" opacity=".5" stroke-linecap="round"/></g><g transform="translate(394.0 473.6) rotate(12.9)"><rect x="-31.0" y="-19.0" width="62.0" height="38.0" rx="19.0" fill="none" stroke="url(#metal3)" stroke-width="11"/><path d="M-24.4 -6.8 a11.4 11.4 0 0 1 19.0 -10.6" fill="none" stroke="#FFFFFF" stroke-width="3.3" opacity=".5" stroke-linecap="round"/></g><g transform="translate(416.4 477.7) rotate(97.8)"><rect x="-31.0" y="-19.0" width="62.0" height="38.0" rx="19.0" fill="none" stroke="url(#metal3)" stroke-width="11"/><path d="M-24.4 -6.8 a11.4 11.4 0 0 1 19.0 -10.6" fill="none" stroke="#FFFFFF" stroke-width="3.3" opacity=".5" stroke-linecap="round"/></g><g transform="translate(438.8 479.7) rotate(2.6)"><rect x="-31.0" y="-19.0" width="62.0" height="38.0" rx="19.0" fill="none" stroke="url(#metal3)" stroke-width="11"/><path d="M-24.4 -6.8 a11.4 11.4 0 0 1 19.0 -10.6" fill="none" stroke="#FFFFFF" stroke-width="3.3" opacity=".5" stroke-linecap="round"/></g><g transform="translate(461.2 479.7) rotate(87.4)"><rect x="-31.0" y="-19.0" width="62.0" height="38.0" rx="19.0" fill="none" stroke="url(#metal3)" stroke-width="11"/><path d="M-24.4 -6.8 a11.4 11.4 0 0 1 19.0 -10.6" fill="none" stroke="#FFFFFF" stroke-width="3.3" opacity=".5" stroke-linecap="round"/></g><g transform="translate(483.6 477.7) rotate(-7.8)"><rect x="-31.0" y="-19.0" width="62.0" height="38.0" rx="19.0" fill="none" stroke="url(#metal3)" stroke-width="11"/><path d="M-24.4 -6.8 a11.4 11.4 0 0 1 19.0 -10.6" fill="none" stroke="#FFFFFF" stroke-width="3.3" opacity=".5" stroke-linecap="round"/></g><g transform="translate(506.0 473.6) rotate(77.1)"><rect x="-31.0" y="-19.0" width="62.0" height="38.0" rx="19.0" fill="none" stroke="url(#metal3)" stroke-width="11"/><path d="M-24.4 -6.8 a11.4 11.4 0 0 1 19.0 -10.6" fill="none" stroke="#FFFFFF" stroke-width="3.3" opacity=".5" stroke-linecap="round"/></g><g transform="translate(528.4 467.5) rotate(-17.7)"><rect x="-31.0" y="-19.0" width="62.0" height="38.0" rx="19.0" fill="none" stroke="url(#metal3)" stroke-width="11"/><path d="M-24.4 -6.8 a11.4 11.4 0 0 1 19.0 -10.6" fill="none" stroke="#FFFFFF" stroke-width="3.3" opacity=".5" stroke-linecap="round"/></g><g transform="translate(550.8 459.3) rotate(67.6)"><rect x="-31.0" y="-19.0" width="62.0" height="38.0" rx="19.0" fill="none" stroke="url(#metal3)" stroke-width="11"/><path d="M-24.4 -6.8 a11.4 11.4 0 0 1 19.0 -10.6" fill="none" stroke="#FFFFFF" stroke-width="3.3" opacity=".5" stroke-linecap="round"/></g><g transform="translate(573.2 449.0) rotate(-26.7)"><rect x="-31.0" y="-19.0" width="62.0" height="38.0" rx="19.0" fill="none" stroke="url(#metal3)" stroke-width="11"/><path d="M-24.4 -6.8 a11.4 11.4 0 0 1 19.0 -10.6" fill="none" stroke="#FFFFFF" stroke-width="3.3" opacity=".5" stroke-linecap="round"/></g><g transform="translate(595.6 436.7) rotate(59.3)"><rect x="-31.0" y="-19.0" width="62.0" height="38.0" rx="19.0" fill="none" stroke="url(#metal3)" stroke-width="11"/><path d="M-24.4 -6.8 a11.4 11.4 0 0 1 19.0 -10.6" fill="none" stroke="#FFFFFF" stroke-width="3.3" opacity=".5" stroke-linecap="round"/></g><g transform="translate(618.0 422.4) rotate(-34.4)"><rect x="-31.0" y="-19.0" width="62.0" height="38.0" rx="19.0" fill="none" stroke="url(#metal3)" stroke-width="11"/><path d="M-24.4 -6.8 a11.4 11.4 0 0 1 19.0 -10.6" fill="none" stroke="#FFFFFF" stroke-width="3.3" opacity=".5" stroke-linecap="round"/></g><g transform="translate(640.4 406.0) rotate(52.1)"><rect x="-31.0" y="-19.0" width="62.0" height="38.0" rx="19.0" fill="none" stroke="url(#metal3)" stroke-width="11"/><path d="M-24.4 -6.8 a11.4 11.4 0 0 1 19.0 -10.6" fill="none" stroke="#FFFFFF" stroke-width="3.3" opacity=".5" stroke-linecap="round"/></g><g transform="translate(662.8 387.6) rotate(-41.0)"><rect x="-31.0" y="-19.0" width="62.0" height="38.0" rx="19.0" fill="none" stroke="url(#metal3)" stroke-width="11"/><path d="M-24.4 -6.8 a11.4 11.4 0 0 1 19.0 -10.6" fill="none" stroke="#FFFFFF" stroke-width="3.3" opacity=".5" stroke-linecap="round"/></g><g transform="translate(685.2 367.1) rotate(46.2)"><rect x="-31.0" y="-19.0" width="62.0" height="38.0" rx="19.0" fill="none" stroke="url(#metal3)" stroke-width="11"/><path d="M-24.4 -6.8 a11.4 11.4 0 0 1 19.0 -10.6" fill="none" stroke="#FFFFFF" stroke-width="3.3" opacity=".5" stroke-linecap="round"/></g><g transform="translate(707.6 344.6) rotate(-46.4)"><rect x="-31.0" y="-19.0" width="62.0" height="38.0" rx="19.0" fill="none" stroke="url(#metal3)" stroke-width="11"/><path d="M-24.4 -6.8 a11.4 11.4 0 0 1 19.0 -10.6" fill="none" stroke="#FFFFFF" stroke-width="3.3" opacity=".5" stroke-linecap="round"/></g><g transform="translate(730.0 320.0) rotate(41.2)"><rect x="-31.0" y="-19.0" width="62.0" height="38.0" rx="19.0" fill="none" stroke="url(#metal3)" stroke-width="11"/><path d="M-24.4 -6.8 a11.4 11.4 0 0 1 19.0 -10.6" fill="none" stroke="#FFFFFF" stroke-width="3.3" opacity=".5" stroke-linecap="round"/></g>
</svg>
