<svg xmlns="http://www.w3.org/2000/svg" viewBox="0 0 900 900" width="900" height="900" role="img" aria-label="Kit com corrente e pulseira em prata 925">
<defs>
  <linearGradient id="metal8" gradientTransform="rotate(112 .5 .5)">
    <stop offset="0"    stop-color="#8E949C"/>
    <stop offset="0.16" stop-color="#E6EAEE"/>
    <stop offset="0.30" stop-color="#AFB6BE"/>
    <stop offset="0.46" stop-color="#F7F9FB"/>
    <stop offset="0.62" stop-color="#9AA1A9"/>
    <stop offset="0.80" stop-color="#DDE2E7"/>
    <stop offset="1"    stop-color="#868D95"/>
  </linearGradient>
  <linearGradient id="metal28" gradientTransform="rotate(150 .5 .5)">
    <stop offset="0"    stop-color="#A6ADB5"/>
    <stop offset="0.28" stop-color="#F2F5F8"/>
    <stop offset="0.55" stop-color="#9FA6AE"/>
    <stop offset="0.78" stop-color="#E9EDF1"/>
    <stop offset="1"    stop-color="#8B929A"/>
  </linearGradient>
  <radialGradient id="fundo8" cx="50%" cy="42%" r="78%">
    <stop offset="0" stop-color="#FDFDFE"/>
    <stop offset="0.62" stop-color="#F2F4F7"/>
    <stop offset="1" stop-color="#E4E7EC"/>
  </radialGradient>
  <radialGradient id="sombra8" cx="50%" cy="50%" r="50%">
    <stop offset="0" stop-color="#6E757E" stop-opacity=".34"/>
    <stop offset="1" stop-color="#6E757E" stop-opacity="0"/>
  </radialGradient>
  <radialGradient id="pedra8" cx="38%" cy="32%" r="72%">
    <stop offset="0" stop-color="#FFFFFF"/>
    <stop offset="0.42" stop-color="#DCE6F0"/>
    <stop offset="1" stop-color="#A9B7C6"/>
  </radialGradient>
  <filter id="suave8" x="-30%" y="-30%" width="160%" height="160%">
    <feGaussianBlur stdDeviation="7"/>
  </filter>
</defs>
<rect width="900" height="900" fill="url(#fundo8)"/>
<ellipse cx="450" cy="760" rx="234" ry="32" fill="url(#sombra8)"/>
<g transform="translate(175.0 250.0) rotate(42.3)"><rect x="-22.0" y="-11.0" width="44.0" height="22.0" rx="11.0" fill="none" stroke="url(#metal8)" stroke-width="7"/><path d="M-17.8 -4.0 a6.6 6.6 0 0 1 11.0 -6.2" fill="none" stroke="#FFFFFF" stroke-width="2.1" opacity=".5" stroke-linecap="round"/></g><g transform="translate(193.3 266.1) rotate(130.3)"><rect x="-22.0" y="-11.0" width="44.0" height="22.0" rx="11.0" fill="none" stroke="url(#metal8)" stroke-width="7"/><path d="M-17.8 -4.0 a6.6 6.6 0 0 1 11.0 -6.2" fill="none" stroke="#FFFFFF" stroke-width="2.1" opacity=".5" stroke-linecap="round"/></g><g transform="translate(211.7 281.1) rotate(38.2)"><rect x="-22.0" y="-11.0" width="44.0" height="22.0" rx="11.0" fill="none" stroke="url(#metal8)" stroke-width="7"/><path d="M-17.8 -4.0 a6.6 6.6 0 0 1 11.0 -6.2" fill="none" stroke="#FFFFFF" stroke-width="2.1" opacity=".5" stroke-linecap="round"/></g><g transform="translate(230.0 295.0) rotate(126.0)"><rect x="-22.0" y="-11.0" width="44.0" height="22.0" rx="11.0" fill="none" stroke="url(#metal8)" stroke-width="7"/><path d="M-17.8 -4.0 a6.6 6.6 0 0 1 11.0 -6.2" fill="none" stroke="#FFFFFF" stroke-width="2.1" opacity=".5" stroke-linecap="round"/></g><g transform="translate(248.3 307.8) rotate(33.7)"><rect x="-22.0" y="-11.0" width="44.0" height="22.0" rx="11.0" fill="none" stroke="url(#metal8)" stroke-width="7"/><path d="M-17.8 -4.0 a6.6 6.6 0 0 1 11.0 -6.2" fill="none" stroke="#FFFFFF" stroke-width="2.1" opacity=".5" stroke-linecap="round"/></g><g transform="translate(266.7 319.4) rotate(121.2)"><rect x="-22.0" y="-11.0" width="44.0" height="22.0" rx="11.0" fill="none" stroke="url(#metal8)" stroke-width="7"/><path d="M-17.8 -4.0 a6.6 6.6 0 0 1 11.0 -6.2" fill="none" stroke="#FFFFFF" stroke-width="2.1" opacity=".5" stroke-linecap="round"/></g><g transform="translate(285.0 330.0) rotate(28.6)"><rect x="-22.0" y="-11.0" width="44.0" height="22.0" rx="11.0" fill="none" stroke="url(#metal8)" stroke-width="7"/><path d="M-17.8 -4.0 a6.6 6.6 0 0 1 11.0 -6.2" fill="none" stroke="#FFFFFF" stroke-width="2.1" opacity=".5" stroke-linecap="round"/></g><g transform="translate(303.3 339.4) rotate(115.9)"><rect x="-22.0" y="-11.0" width="44.0" height="22.0" rx="11.0" fill="none" stroke="url(#metal8)" stroke-width="7"/><path d="M-17.8 -4.0 a6.6 6.6 0 0 1 11.0 -6.2" fill="none" stroke="#FFFFFF" stroke-width="2.1" opacity=".5" stroke-linecap="round"/></g><g transform="translate(321.7 347.8) rotate(23.0)"><rect x="-22.0" y="-11.0" width="44.0" height="22.0" rx="11.0" fill="none" stroke="url(#metal8)" stroke-width="7"/><path d="M-17.8 -4.0 a6.6 6.6 0 0 1 11.0 -6.2" fill="none" stroke="#FFFFFF" stroke-width="2.1" opacity=".5" stroke-linecap="round"/></g><g transform="translate(340.0 355.0) rotate(110.0)"><rect x="-22.0" y="-11.0" width="44.0" height="22.0" rx="11.0" fill="none" stroke="url(#metal8)" stroke-width="7"/><path d="M-17.8 -4.0 a6.6 6.6 0 0 1 11.0 -6.2" fill="none" stroke="#FFFFFF" stroke-width="2.1" opacity=".5" stroke-linecap="round"/></g><g transform="translate(358.3 361.1) rotate(16.9)"><rect x="-22.0" y="-11.0" width="44.0" height="22.0" rx="11.0" fill="none" stroke="url(#metal8)" stroke-width="7"/><path d="M-17.8 -4.0 a6.6 6.6 0 0 1 11.0 -6.2" fill="none" stroke="#FFFFFF" stroke-width="2.1" opacity=".5" stroke-linecap="round"/></g><g transform="translate(376.7 366.1) rotate(103.6)"><rect x="-22.0" y="-11.0" width="44.0" height="22.0" rx="11.0" fill="none" stroke="url(#metal8)" stroke-width="7"/><path d="M-17.8 -4.0 a6.6 6.6 0 0 1 11.0 -6.2" fill="none" stroke="#FFFFFF" stroke-width="2.1" opacity=".5" stroke-linecap="round"/></g><g transform="translate(395.0 370.0) rotate(10.3)"><rect x="-22.0" y="-11.0" width="44.0" height="22.0" rx="11.0" fill="none" stroke="url(#metal8)" stroke-width="7"/><path d="M-17.8 -4.0 a6.6 6.6 0 0 1 11.0 -6.2" fill="none" stroke="#FFFFFF" stroke-width="2.1" opacity=".5" stroke-linecap="round"/></g><g transform="translate(413.3 372.8) rotate(96.9)"><rect x="-22.0" y="-11.0" width="44.0" height="22.0" rx="11.0" fill="none" stroke="url(#metal8)" stroke-width="7"/><path d="M-17.8 -4.0 a6.6 6.6 0 0 1 11.0 -6.2" fill="none" stroke="#FFFFFF" stroke-width="2.1" opacity=".5" stroke-linecap="round"/></g><g transform="translate(431.7 374.4) rotate(3.5)"><rect x="-22.0" y="-11.0" width="44.0" height="22.0" rx="11.0" fill="none" stroke="url(#metal8)" stroke-width="7"/><path d="M-17.8 -4.0 a6.6 6.6 0 0 1 11.0 -6.2" fill="none" stroke="#FFFFFF" stroke-width="2.1" opacity=".5" stroke-linecap="round"/></g><g transform="translate(450.0 375.0) rotate(90.0)"><rect x="-22.0" y="-11.0" width="44.0" height="22.0" rx="11.0" fill="none" stroke="url(#metal8)" stroke-width="7"/><path d="M-17.8 -4.0 a6.6 6.6 0 0 1 11.0 -6.2" fill="none" stroke="#FFFFFF" stroke-width="2.1" opacity=".5" stroke-linecap="round"/></g><g transform="translate(468.3 374.4) rotate(-3.5)"><rect x="-22.0" y="-11.0" width="44.0" height="22.0" rx="11.0" fill="none" stroke="url(#metal8)" stroke-width="7"/><path d="M-17.8 -4.0 a6.6 6.6 0 0 1 11.0 -6.2" fill="none" stroke="#FFFFFF" stroke-width="2.1" opacity=".5" stroke-linecap="round"/></g><g transform="translate(486.7 372.8) rotate(83.1)"><rect x="-22.0" y="-11.0" width="44.0" height="22.0" rx="11.0" fill="none" stroke="url(#metal8)" stroke-width="7"/><path d="M-17.8 -4.0 a6.6 6.6 0 0 1 11.0 -6.2" fill="none" stroke="#FFFFFF" stroke-width="2.1" opacity=".5" stroke-linecap="round"/></g><g transform="translate(505.0 370.0) rotate(-10.3)"><rect x="-22.0" y="-11.0" width="44.0" height="22.0" rx="11.0" fill="none" stroke="url(#metal8)" stroke-width="7"/><path d="M-17.8 -4.0 a6.6 6.6 0 0 1 11.0 -6.2" fill="none" stroke="#FFFFFF" stroke-width="2.1" opacity=".5" stroke-linecap="round"/></g><g transform="translate(523.3 366.1) rotate(76.4)"><rect x="-22.0" y="-11.0" width="44.0" height="22.0" rx="11.0" fill="none" stroke="url(#metal8)" stroke-width="7"/><path d="M-17.8 -4.0 a6.6 6.6 0 0 1 11.0 -6.2" fill="none" stroke="#FFFFFF" stroke-width="2.1" opacity=".5" stroke-linecap="round"/></g><g transform="translate(541.7 361.1) rotate(-16.9)"><rect x="-22.0" y="-11.0" width="44.0" height="22.0" rx="11.0" fill="none" stroke="url(#metal8)" stroke-width="7"/><path d="M-17.8 -4.0 a6.6 6.6 0 0 1 11.0 -6.2" fill="none" stroke="#FFFFFF" stroke-width="2.1" opacity=".5" stroke-linecap="round"/></g><g transform="translate(560.0 355.0) rotate(70.0)"><rect x="-22.0" y="-11.0" width="44.0" height="22.0" rx="11.0" fill="none" stroke="url(#metal8)" stroke-width="7"/><path d="M-17.8 -4.0 a6.6 6.6 0 0 1 11.0 -6.2" fill="none" stroke="#FFFFFF" stroke-width="2.1" opacity=".5" stroke-linecap="round"/></g><g transform="translate(578.3 347.8) rotate(-23.0)"><rect x="-22.0" y="-11.0" width="44.0" height="22.0" rx="11.0" fill="none" stroke="url(#metal8)" stroke-width="7"/><path d="M-17.8 -4.0 a6.6 6.6 0 0 1 11.0 -6.2" fill="none" stroke="#FFFFFF" stroke-width="2.1" opacity=".5" stroke-linecap="round"/></g><g transform="translate(596.7 339.4) rotate(64.1)"><rect x="-22.0" y="-11.0" width="44.0" height="22.0" rx="11.0" fill="none" stroke="url(#metal8)" stroke-width="7"/><path d="M-17.8 -4.0 a6.6 6.6 0 0 1 11.0 -6.2" fill="none" stroke="#FFFFFF" stroke-width="2.1" opacity=".5" stroke-linecap="round"/></g><g transform="translate(615.0 330.0) rotate(-28.6)"><rect x="-22.0" y="-11.0" width="44.0" height="22.0" rx="11.0" fill="none" stroke="url(#metal8)" stroke-width="7"/><path d="M-17.8 -4.0 a6.6 6.6 0 0 1 11.0 -6.2" fill="none" stroke="#FFFFFF" stroke-width="2.1" opacity=".5" stroke-linecap="round"/></g><g transform="translate(633.3 319.4) rotate(58.8)"><rect x="-22.0" y="-11.0" width="44.0" height="22.0" rx="11.0" fill="none" stroke="url(#metal8)" stroke-width="7"/><path d="M-17.8 -4.0 a6.6 6.6 0 0 1 11.0 -6.2" fill="none" stroke="#FFFFFF" stroke-width="2.1" opacity=".5" stroke-linecap="round"/></g><g transform="translate(651.7 307.8) rotate(-33.7)"><rect x="-22.0" y="-11.0" width="44.0" height="22.0" rx="11.0" fill="none" stroke="url(#metal8)" stroke-width="7"/><path d="M-17.8 -4.0 a6.6 6.6 0 0 1 11.0 -6.2" fill="none" stroke="#FFFFFF" stroke-width="2.1" opacity=".5" stroke-linecap="round"/></g><g transform="translate(670.0 295.0) rotate(54.0)"><rect x="-22.0" y="-11.0" width="44.0" height="22.0" rx="11.0" fill="none" stroke="url(#metal8)" stroke-width="7"/><path d="M-17.8 -4.0 a6.6 6.6 0 0 1 11.0 -6.2" fill="none" stroke="#FFFFFF" stroke-width="2.1" opacity=".5" stroke-linecap="round"/></g><g transform="translate(688.3 281.1) rotate(-38.2)"><rect x="-22.0" y="-11.0" width="44.0" height="22.0" rx="11.0" fill="none" stroke="url(#metal8)" stroke-width="7"/><path d="M-17.8 -4.0 a6.6 6.6 0 0 1 11.0 -6.2" fill="none" stroke="#FFFFFF" stroke-width="2.1" opacity=".5" stroke-linecap="round"/></g><g transform="translate(706.7 266.1) rotate(49.7)"><rect x="-22.0" y="-11.0" width="44.0" height="22.0" rx="11.0" fill="none" stroke="url(#metal8)" stroke-width="7"/><path d="M-17.8 -4.0 a6.6 6.6 0 0 1 11.0 -6.2" fill="none" stroke="#FFFFFF" stroke-width="2.1" opacity=".5" stroke-linecap="round"/></g><g transform="translate(725.0 250.0) rotate(-42.3)"><rect x="-22.0" y="-11.0" width="44.0" height="22.0" rx="11.0" fill="none" stroke="url(#metal8)" stroke-width="7"/><path d="M-17.8 -4.0 a6.6 6.6 0 0 1 11.0 -6.2" fill="none" stroke="#FFFFFF" stroke-width="2.1" opacity=".5" stroke-linecap="round"/></g><g transform="translate(240.0 640.0) rotate(-24.3)"><rect x="-26.0" y="-14.0" width="52.0" height="28.0" rx="14.0" fill="none" stroke="url(#metal8)" stroke-width="9"/><path d="M-20.6 -5.0 a8.4 8.4 0 0 1 14.0 -7.8" fill="none" stroke="#FFFFFF" stroke-width="2.7" opacity=".5" stroke-linecap="round"/></g><g transform="translate(263.3 630.0) rotate(68.1)"><rect x="-26.0" y="-14.0" width="52.0" height="28.0" rx="14.0" fill="none" stroke="url(#metal8)" stroke-width="9"/><path d="M-20.6 -5.0 a8.4 8.4 0 0 1 14.0 -7.8" fill="none" stroke="#FFFFFF" stroke-width="2.7" opacity=".5" stroke-linecap="round"/></g><g transform="translate(286.7 621.2) rotate(-19.4)"><rect x="-26.0" y="-14.0" width="52.0" height="28.0" rx="14.0" fill="none" stroke="url(#metal8)" stroke-width="9"/><path d="M-20.6 -5.0 a8.4 8.4 0 0 1 14.0 -7.8" fill="none" stroke="#FFFFFF" stroke-width="2.7" opacity=".5" stroke-linecap="round"/></g><g transform="translate(310.0 613.6) rotate(73.2)"><rect x="-26.0" y="-14.0" width="52.0" height="28.0" rx="14.0" fill="none" stroke="url(#metal8)" stroke-width="9"/><path d="M-20.6 -5.0 a8.4 8.4 0 0 1 14.0 -7.8" fill="none" stroke="#FFFFFF" stroke-width="2.7" opacity=".5" stroke-linecap="round"/></g><g transform="translate(333.3 607.2) rotate(-14.1)"><rect x="-26.0" y="-14.0" width="52.0" height="28.0" rx="14.0" fill="none" stroke="url(#metal8)" stroke-width="9"/><path d="M-20.6 -5.0 a8.4 8.4 0 0 1 14.0 -7.8" fill="none" stroke="#FFFFFF" stroke-width="2.7" opacity=".5" stroke-linecap="round"/></g><g transform="translate(356.7 601.9) rotate(78.6)"><rect x="-26.0" y="-14.0" width="52.0" height="28.0" rx="14.0" fill="none" stroke="url(#metal8)" stroke-width="9"/><path d="M-20.6 -5.0 a8.4 8.4 0 0 1 14.0 -7.8" fill="none" stroke="#FFFFFF" stroke-width="2.7" opacity=".5" stroke-linecap="round"/></g><g transform="translate(380.0 597.8) rotate(-8.6)"><rect x="-26.0" y="-14.0" width="52.0" height="28.0" rx="14.0" fill="none" stroke="url(#metal8)" stroke-width="9"/><path d="M-20.6 -5.0 a8.4 8.4 0 0 1 14.0 -7.8" fill="none" stroke="#FFFFFF" stroke-width="2.7" opacity=".5" stroke-linecap="round"/></g><g transform="translate(403.3 594.8) rotate(84.3)"><rect x="-26.0" y="-14.0" width="52.0" height="28.0" rx="14.0" fill="none" stroke="url(#metal8)" stroke-width="9"/><path d="M-20.6 -5.0 a8.4 8.4 0 0 1 14.0 -7.8" fill="none" stroke="#FFFFFF" stroke-width="2.7" opacity=".5" stroke-linecap="round"/></g><g transform="translate(426.7 593.1) rotate(-2.9)"><rect x="-26.0" y="-14.0" width="52.0" height="28.0" rx="14.0" fill="none" stroke="url(#metal8)" stroke-width="9"/><path d="M-20.6 -5.0 a8.4 8.4 0 0 1 14.0 -7.8" fill="none" stroke="#FFFFFF" stroke-width="2.7" opacity=".5" stroke-linecap="round"/></g><g transform="translate(450.0 592.5) rotate(90.0)"><rect x="-26.0" y="-14.0" width="52.0" height="28.0" rx="14.0" fill="none" stroke="url(#metal8)" stroke-width="9"/><path d="M-20.6 -5.0 a8.4 8.4 0 0 1 14.0 -7.8" fill="none" stroke="#FFFFFF" stroke-width="2.7" opacity=".5" stroke-linecap="round"/></g><g transform="translate(473.3 593.1) rotate(2.9)"><rect x="-26.0" y="-14.0" width="52.0" height="28.0" rx="14.0" fill="none" stroke="url(#metal8)" stroke-width="9"/><path d="M-20.6 -5.0 a8.4 8.4 0 0 1 14.0 -7.8" fill="none" stroke="#FFFFFF" stroke-width="2.7" opacity=".5" stroke-linecap="round"/></g><g transform="translate(496.7 594.8) rotate(95.7)"><rect x="-26.0" y="-14.0" width="52.0" height="28.0" rx="14.0" fill="none" stroke="url(#metal8)" stroke-width="9"/><path d="M-20.6 -5.0 a8.4 8.4 0 0 1 14.0 -7.8" fill="none" stroke="#FFFFFF" stroke-width="2.7" opacity=".5" stroke-linecap="round"/></g><g transform="translate(520.0 597.8) rotate(8.6)"><rect x="-26.0" y="-14.0" width="52.0" height="28.0" rx="14.0" fill="none" stroke="url(#metal8)" stroke-width="9"/><path d="M-20.6 -5.0 a8.4 8.4 0 0 1 14.0 -7.8" fill="none" stroke="#FFFFFF" stroke-width="2.7" opacity=".5" stroke-linecap="round"/></g><g transform="translate(543.3 601.9) rotate(101.4)"><rect x="-26.0" y="-14.0" width="52.0" height="28.0" rx="14.0" fill="none" stroke="url(#metal8)" stroke-width="9"/><path d="M-20.6 -5.0 a8.4 8.4 0 0 1 14.0 -7.8" fill="none" stroke="#FFFFFF" stroke-width="2.7" opacity=".5" stroke-linecap="round"/></g><g transform="translate(566.7 607.2) rotate(14.1)"><rect x="-26.0" y="-14.0" width="52.0" height="28.0" rx="14.0" fill="none" stroke="url(#metal8)" stroke-width="9"/><path d="M-20.6 -5.0 a8.4 8.4 0 0 1 14.0 -7.8" fill="none" stroke="#FFFFFF" stroke-width="2.7" opacity=".5" stroke-linecap="round"/></g><g transform="translate(590.0 613.6) rotate(106.8)"><rect x="-26.0" y="-14.0" width="52.0" height="28.0" rx="14.0" fill="none" stroke="url(#metal8)" stroke-width="9"/><path d="M-20.6 -5.0 a8.4 8.4 0 0 1 14.0 -7.8" fill="none" stroke="#FFFFFF" stroke-width="2.7" opacity=".5" stroke-linecap="round"/></g><g transform="translate(613.3 621.2) rotate(19.4)"><rect x="-26.0" y="-14.0" width="52.0" height="28.0" rx="14.0" fill="none" stroke="url(#metal8)" stroke-width="9"/><path d="M-20.6 -5.0 a8.4 8.4 0 0 1 14.0 -7.8" fill="none" stroke="#FFFFFF" stroke-width="2.7" opacity=".5" stroke-linecap="round"/></g><g transform="translate(636.7 630.0) rotate(111.9)"><rect x="-26.0" y="-14.0" width="52.0" height="28.0" rx="14.0" fill="none" stroke="url(#metal8)" stroke-width="9"/><path d="M-20.6 -5.0 a8.4 8.4 0 0 1 14.0 -7.8" fill="none" stroke="#FFFFFF" stroke-width="2.7" opacity=".5" stroke-linecap="round"/></g><g transform="translate(660.0 640.0) rotate(24.3)"><rect x="-26.0" y="-14.0" width="52.0" height="28.0" rx="14.0" fill="none" stroke="url(#metal8)" stroke-width="9"/><path d="M-20.6 -5.0 a8.4 8.4 0 0 1 14.0 -7.8" fill="none" stroke="#FFFFFF" stroke-width="2.7" opacity=".5" stroke-linecap="round"/></g>
</svg>
