<svg xmlns="http://www.w3.org/2000/svg" viewBox="0 0 1000 1000" width="1000" height="1000" role="img" aria-label="Kit com anel signet e brinco de cruz em aço cromado">
<defs>
  <linearGradient id="cromo147" x1="0" y1="0" x2="0" y2="1" gradientTransform="rotate(-22 .5 .5)">
    <stop offset="0"    stop-color="#FFFFFF"/>
    <stop offset="0.18" stop-color="#D2D8DF"/>
    <stop offset="0.33" stop-color="#7C848D"/>
    <stop offset="0.47" stop-color="#2B3036"/>
    <stop offset="0.50" stop-color="#3A4048"/>
    <stop offset="0.55" stop-color="#9AA2AB"/>
    <stop offset="0.68" stop-color="#F4F7FA"/>
    <stop offset="0.84" stop-color="#AEB6BE"/>
    <stop offset="1"    stop-color="#EDF1F5"/>
  </linearGradient>
  <linearGradient id="cromo2147" x1="0" y1="0" x2="1" y2="1" gradientTransform="rotate(6 .5 .5)">
    <stop offset="0"    stop-color="#EFF3F7"/>
    <stop offset="0.28" stop-color="#8F979F"/>
    <stop offset="0.44" stop-color="#31363C"/>
    <stop offset="0.58" stop-color="#C9D0D7"/>
    <stop offset="0.8"  stop-color="#5E666E"/>
    <stop offset="1"    stop-color="#E4E9EE"/>
  </linearGradient>
  <linearGradient id="fosco147" x1="0" y1="0" x2="0" y2="1" gradientTransform="rotate(-22 .5 .5)">
    <stop offset="0"    stop-color="#4A4F55"/>
    <stop offset="0.38" stop-color="#24282D"/>
    <stop offset="0.62" stop-color="#33383E"/>
    <stop offset="1"    stop-color="#1A1D21"/>
  </linearGradient>
  <linearGradient id="volt147" x1="0" y1="0" x2="0" y2="1">
    <stop offset="0" stop-color="#EBFF7A"/>
    <stop offset="0.5" stop-color="#D6FF2E"/>
    <stop offset="1" stop-color="#A8CC18"/>
  </linearGradient>
</defs>
<rect width="1000" height="1000" fill="#FF4D2E"/>
<circle cx="500" cy="500" r="380" fill="#E8401F"/>
<g transform="translate(500 500) rotate(11) scale(0.84)"><g transform="translate(-215 -40) scale(.86) rotate(-8)"><g transform="translate(0 0) scale(1.0)"><g transform="translate(0 40) rotate(-18)"><path fill-rule="evenodd" fill="none" stroke="#0A0A0B" stroke-width="14" d="M-200 0 a200 88.0 0 1 0 400 0 a200 88.0 0 1 0 -400 0 ZM-160 0 a160 64.0 0 1 1 320 0 a160 64.0 0 1 1 -320 0 Z"/><path fill-rule="evenodd" fill="url(#cromo147)" d="M-200 0 a200 88.0 0 1 0 400 0 a200 88.0 0 1 0 -400 0 ZM-160 0 a160 64.0 0 1 1 320 0 a160 64.0 0 1 1 -320 0 Z"/></g><g transform="translate(0 -104) rotate(-8)"><ellipse rx="118" ry="96" fill="#0A0A0B"/><ellipse rx="108" ry="86" fill="url(#cromo2147)"/><ellipse rx="80" ry="62" fill="none" stroke="#0A0A0B" stroke-width="7" opacity=".55"/><path d="M-38 34 L0 -44 L38 34 L20 34 L0 -8 L-20 34 Z" fill="#0A0A0B" opacity=".75"/><path d="M-96 -48 A104 84 0 0 1 -14 -84" fill="none" stroke="#FFFFFF" stroke-width="11" opacity=".7" stroke-linecap="round"/></g></g></g><g transform="translate(225 60) scale(.92) rotate(6)"><g transform="translate(0 -238)"><circle r="70" fill="none" stroke="#0A0A0B" stroke-width="42"/><circle r="70" fill="none" stroke="url(#cromo147)" stroke-width="26"/><path d="M-48 -46 a66 66 0 0 1 38 -21" fill="none" stroke="#FFFFFF" stroke-width="7.3" opacity=".8" stroke-linecap="round"/></g><path d="M0 -168 Q0 -150 0 -128" fill="none" stroke="#0A0A0B" stroke-width="23" stroke-linecap="round"/><path d="M0 -168 Q0 -150 0 -128" fill="none" stroke="url(#cromo2147)" stroke-width="11" stroke-linecap="round"/><g transform="translate(0 30) rotate(0) scale(1.0)"><path d="M-36.5 -135.0 L36.5 -135.0 L36.5 -71.6 L81.0 -71.6 L81.0 1.4 L36.5 1.4 L26.2 135.0 L-26.2 135.0 L-36.5 1.4 L-81.0 1.4 L-81.0 -71.6 L-36.5 -71.6 Z" fill="#0A0A0B" stroke="#0A0A0B" stroke-width="24.3" stroke-linejoin="round"/><path d="M-36.5 -135.0 L36.5 -135.0 L36.5 -71.6 L81.0 -71.6 L81.0 1.4 L36.5 1.4 L26.2 135.0 L-26.2 135.0 L-36.5 1.4 L-81.0 1.4 L-81.0 -71.6 L-36.5 -71.6 Z" fill="url(#cromo147)"/><path d="M-20.0 -110.7 L-20.0 94.5" stroke="#FFFFFF" stroke-width="9.5" opacity=".65" stroke-linecap="round"/></g></g></g>
</svg>
