<svg xmlns="http://www.w3.org/2000/svg" viewBox="0 0 720 720" width="720" height="720" role="img"><defs><radialGradient id="fesfiha" cx="0.42" cy="0.3" r="0.85"><stop offset="0" stop-color="#F7F0E3"/><stop offset="1" stop-color="#EFE4D0"/></radialGradient></defs><rect width="720" height="720" fill="url(#fesfiha)"/><ellipse cx="360.0" cy="574.4000000000001" rx="266" ry="42" fill="#241510" opacity="0.22"/><path d="M 78.0 244.40000000000003 q 282 -58 564 0 q 42 160 0 320 q -282 58 -564 0 q -42 -160 0 -320 Z" fill="#C9A05C"/><path d="M 78.0 224.40000000000003 q 282 -58 564 0 q 42 160 0 320 q -282 58 -564 0 q -42 -160 0 -320 Z" fill="#E8C98A"/><path d="M 136.0 270.40000000000003 q 224 -46 448 0 q 32 128 0 254 q -224 46 -448 0 q -32 -128 0 -254 Z" fill="#B8402A"/><path d="M 136.0 270.40000000000003 q 224 -46 448 0 q 32 128 0 254 q -224 46 -448 0 q -32 -128 0 -254 Z" fill="#A8452F" opacity=".7"/><circle cx="351.1" cy="486.0" r="11.4" fill="#F0D08A" opacity="0.8"/><circle cx="407.8" cy="361.3" r="9.0" fill="#F0D08A" opacity="0.8"/><circle cx="414.3" cy="438.6" r="11.6" fill="#F0D08A" opacity="0.8"/><circle cx="454.7" cy="454.8" r="8.9" fill="#F0D08A" opacity="0.8"/><circle cx="325.4" cy="465.3" r="12.2" fill="#F0D08A" opacity="0.8"/><circle cx="342.3" cy="390.4" r="9.2" fill="#F0D08A" opacity="0.8"/><circle cx="467.2" cy="477.2" r="12.0" fill="#F0D08A" opacity="0.8"/><circle cx="419.5" cy="307.9" r="11.7" fill="#F0D08A" opacity="0.8"/><circle cx="520.8" cy="368.8" r="9.1" fill="#F0D08A" opacity="0.8"/><circle cx="437.9" cy="338.5" r="11.7" fill="#F0D08A" opacity="0.8"/><circle cx="245.4" cy="371.2" r="9.7" fill="#F0D08A" opacity="0.8"/><circle cx="263.8" cy="423.7" r="8.4" fill="#F0D08A" opacity="0.8"/><circle cx="431.9" cy="312.6" r="12.9" fill="#F0D08A" opacity="0.8"/><circle cx="308.7" cy="324.9" r="11.7" fill="#F0D08A" opacity="0.8"/><circle cx="463.5" cy="463.8" r="10.1" fill="#F0D08A" opacity="0.8"/><circle cx="398.0" cy="441.1" r="10.5" fill="#F0D08A" opacity="0.8"/><circle cx="357.3" cy="470.2" r="10.9" fill="#F0D08A" opacity="0.8"/><circle cx="305.5" cy="421.8" r="10.4" fill="#F0D08A" opacity="0.8"/><circle cx="368.4" cy="449.6" r="8.8" fill="#F0D08A" opacity="0.8"/><circle cx="325.6" cy="419.8" r="11.2" fill="#F0D08A" opacity="0.8"/><circle cx="473.6" cy="379.4" r="11.5" fill="#F0D08A" opacity="0.8"/><circle cx="396.0" cy="389.4" r="8.5" fill="#F0D08A" opacity="0.8"/><circle cx="420.0" cy="307.3" r="11.1" fill="#F0D08A" opacity="0.8"/><circle cx="425.6" cy="455.9" r="12.3" fill="#F0D08A" opacity="0.8"/><circle cx="488.5" cy="336.1" r="8.9" fill="#F0D08A" opacity="0.8"/><circle cx="430.5" cy="346.8" r="11.5" fill="#F0D08A" opacity="0.8"/><circle cx="482.1" cy="477.6" r="10.9" fill="#F0D08A" opacity="0.8"/><circle cx="345.1" cy="350.3" r="11.0" fill="#F0D08A" opacity="0.8"/><circle cx="232.4" cy="358.8" r="9.7" fill="#F0D08A" opacity="0.8"/><circle cx="344.5" cy="337.1" r="9.3" fill="#F0D08A" opacity="0.8"/><circle cx="440.4" cy="473.7" r="8.4" fill="#F0D08A" opacity="0.8"/><circle cx="367.6" cy="425.9" r="11.1" fill="#F0D08A" opacity="0.8"/><circle cx="228.6" cy="371.4" r="8.0" fill="#F0D08A" opacity="0.8"/><circle cx="256.6" cy="421.4" r="8.3" fill="#F0D08A" opacity="0.8"/><circle cx="549.8" cy="400.4" r="8.4" fill="#F0D08A" opacity="0.8"/><circle cx="328.7" cy="450.5" r="10.9" fill="#F0D08A" opacity="0.8"/><circle cx="475.1" cy="432.4" r="9.7" fill="#F0D08A" opacity="0.8"/><circle cx="367.3" cy="391.5" r="9.5" fill="#F0D08A" opacity="0.8"/><circle cx="172.9" cy="400.7" r="10.5" fill="#F0D08A" opacity="0.8"/><circle cx="206.6" cy="412.4" r="9.3" fill="#F0D08A" opacity="0.8"/><circle cx="491.9" cy="413.3" r="12.5" fill="#F0D08A" opacity="0.8"/><circle cx="352.9" cy="344.7" r="11.4" fill="#F0D08A" opacity="0.8"/><circle cx="416.3" cy="354.6" r="10.9" fill="#F0D08A" opacity="0.8"/><circle cx="302.2" cy="439.7" r="9.3" fill="#F0D08A" opacity="0.8"/><ellipse cx="230.0" cy="344.40000000000003" rx="34" ry="25" fill="#7A2616" opacity=".6" transform="rotate(0,230.0,344.40000000000003)"/><ellipse cx="318.0" cy="418.40000000000003" rx="34" ry="25" fill="#7A2616" opacity=".6" transform="rotate(23,318.0,418.40000000000003)"/><ellipse cx="406.0" cy="344.40000000000003" rx="34" ry="25" fill="#7A2616" opacity=".6" transform="rotate(46,406.0,344.40000000000003)"/><ellipse cx="494.0" cy="418.40000000000003" rx="34" ry="25" fill="#7A2616" opacity=".6" transform="rotate(69,494.0,418.40000000000003)"/><ellipse cx="582.0" cy="344.40000000000003" rx="34" ry="25" fill="#7A2616" opacity=".6" transform="rotate(92,582.0,344.40000000000003)"/><path d="M 200.0 498.40000000000003 q 160 30 320 0" stroke="#4A5D3A" stroke-width="9" fill="none" opacity=".55" stroke-linecap="round"/><ellipse cx="250.0" cy="304.40000000000003" rx="70" ry="28" fill="#FBF7EF" opacity=".14"/></svg>